<?xml version="1.0" standalone="no"?>
<!DOCTYPE svg PUBLIC "-//W3C//DTD SVG 20010904//EN"
 "http://www.w3.org/TR/2001/REC-SVG-20010904/DTD/svg10.dtd">
<svg version="1.0" xmlns="http://www.w3.org/2000/svg"
 width="352.000000pt" height="352.000000pt" viewBox="0 0 352.000000 352.000000"
 preserveAspectRatio="xMidYMid meet" style="opacity: .03;">

<g transform="translate(0.000000,352.000000) scale(0.100000,-0.100000)"
fill="#000000" stroke="none">
<path d="M1787 2715 c-214 -41 -390 -189 -449 -378 -27 -85 -31 -239 -9 -301
42 -119 202 -190 376 -165 119 17 187 58 235 142 35 61 38 95 9 131 -37 48
-74 59 -163 52 -91 -7 -91 3 -2 34 73 25 97 25 144 1 45 -23 67 -46 86 -92 36
-86 -50 -231 -168 -285 -154 -71 -377 -48 -493 50 -51 43 -94 141 -102 232 -6
75 -7 78 -36 87 -16 6 -113 10 -215 10 -167 0 -194 -2 -281 -25 -209 -56 -397
-175 -502 -317 -38 -51 -120 -212 -112 -220 2 -2 53 18 112 45 89 40 120 49
180 52 169 9 244 -61 288 -273 32 -153 63 -218 123 -256 44 -28 111 -53 120
-44 2 2 -2 21 -9 42 -20 62 -16 170 11 230 25 59 104 139 169 172 132 68 319
35 419 -73 67 -73 79 -165 32 -260 -44 -91 -140 -130 -192 -78 l-23 22 30 -5
c36 -7 98 26 128 67 25 33 34 122 17 172 -24 72 -125 128 -235 130 -89 0 -164
-32 -233 -101 -53 -54 -72 -101 -72 -185 0 -126 56 -225 171 -304 118 -80 215
-116 330 -122 169 -8 290 31 437 143 40 30 77 55 82 55 4 0 28 -16 52 -36 127
-107 238 -158 364 -170 221 -20 394 100 449 313 24 90 25 88 -62 101 -147 23
-263 106 -338 243 -28 50 -30 61 -30 154 1 88 4 106 27 150 54 103 142 159
253 159 59 0 78 -4 118 -27 61 -36 72 -57 52 -97 -19 -37 -33 -38 -37 -3 -6
52 -94 85 -183 69 -79 -15 -152 -121 -162 -235 -7 -74 8 -126 58 -200 79 -118
171 -163 328 -163 216 1 396 106 493 288 70 131 82 229 49 391 -25 122 -71
213 -146 289 -127 128 -301 168 -559 128 l-103 -16 -89 72 c-117 94 -205 146
-312 183 -76 26 -103 31 -217 33 -85 2 -157 -2 -208 -11z"/>
</g>
</svg>
